<svg width="40" height="40" viewBox="0 0 40 40" fill="none" xmlns="http://www.w3.org/2000/svg">
<g clip-path="url(#clip0_28_470)">
<path d="M38.3333 18.3328H1.66667C0.746192 18.3328 0 19.079 0 19.9994C0 20.9199 0.746192 21.6661 1.66667 21.6661H38.3333C39.2538 21.6661 40 20.9199 40 19.9994C40 19.079 39.2538 18.3328 38.3333 18.3328Z" fill="black"/>
<path d="M38.3333 6.66724H1.66667C0.746192 6.66724 0 7.41343 0 8.3339C0 9.25437 0.746192 10.0006 1.66667 10.0006H38.3333C39.2538 10.0006 40 9.25437 40 8.3339C40 7.41343 39.2538 6.66724 38.3333 6.66724Z" fill="black"/>
<path d="M38.3333 30H1.66667C0.746192 30 0 30.7462 0 31.6667C0 32.5872 0.746192 33.3334 1.66667 33.3334H38.3333C39.2538 33.3334 40 32.5872 40 31.6667C40 30.7462 39.2538 30 38.3333 30Z" fill="black"/>
</g>
<defs>
<clipPath id="clip0_28_470">
<rect width="40" height="40" fill="white"/>
</clipPath>
</defs>
</svg>
